<?xml version="1.0" standalone="no"?>
<!DOCTYPE svg PUBLIC "-//W3C//DTD SVG 20010904//EN"
 "http://www.w3.org/TR/2001/REC-SVG-20010904/DTD/svg10.dtd">
<svg version="1.0" xmlns="http://www.w3.org/2000/svg"
 width="50.000000pt" height="50.000000pt" viewBox="0 0 50.000000 50.000000"
 preserveAspectRatio="xMidYMid meet">

<g transform="translate(0.000000,50.000000) scale(0.100000,-0.100000)"
fill="#000000" stroke="none">
<path d="M210 367 c-21 -10 -25 -20 -27 -57 -1 -25 1 -38 3 -29 4 13 14 16 45
13 26 -2 39 0 39 9 1 6 8 1 16 -13 15 -24 15 -24 10 19 -2 24 -8 47 -13 51
-17 16 -49 19 -73 7z"/>
<path d="M296 243 c-6 -14 -5 -15 5 -6 7 7 10 15 7 18 -3 3 -9 -2 -12 -12z"/>
<path d="M220 220 c0 -6 7 -10 15 -10 8 0 15 2 15 4 0 2 -7 6 -15 10 -8 3 -15
1 -15 -4z"/>
<path d="M269 203 c-13 -16 -12 -17 4 -4 9 7 17 15 17 17 0 8 -8 3 -21 -13z"/>
<path d="M312 174 c-27 -18 -29 -55 -4 -77 33 -30 83 -16 96 28 7 24 -1 38
-31 54 -28 14 -34 14 -61 -5z m55 -42 c1 -17 -2 -20 -11 -12 -7 5 -17 6 -22 2
-5 -4 -6 -3 -2 2 4 5 3 15 -2 22 -8 9 -5 12 12 11 16 -2 23 -9 25 -25z"/>
<path d="M158 169 c-12 -6 -18 -22 -18 -43 0 -27 5 -36 28 -44 26 -11 69 -15
121 -13 23 1 23 2 6 21 -12 13 -16 30 -13 53 4 34 3 34 -23 25 -18 -6 -34 -6
-48 1 -24 13 -31 13 -53 0z"/>
</g>
</svg>
